<?xml version="1.0"?>
<!-- Generated by SVGo -->
<svg width="736" height="744"
     xmlns="http://www.w3.org/2000/svg" 
     xmlns:xlink="http://www.w3.org/1999/xlink">
<rect x="0" y="0" width="736" height="744" style="fill:white;stroke-width:2px;stroke:lightgray"/>
<g style="font-size:20px;font-family:sans-serif">
<text x="20" y="1" style="font-size:150%"></text>
<g style="font-style:italic;font-size:75%">
<rect x="528" y="69" width="4" height="20" style="fill-opacity:0.3;fill:red"/>
<text x="523" y="84" style="text-anchor:end">+1.53%</text>
</g>
<text x="20" y="89" style="text-anchor:start">BenchmarkPaeth</text>
<g style="font-style:italic;font-size:75%">
<rect x="532" y="95" width="5" height="20" style="fill-opacity:0.3;fill:green"/>
<text x="542" y="110" style="text-anchor:start">-1.85%</text>
</g>
<text x="20" y="115" style="text-anchor:start">BenchmarkDecodeGray</text>
<g style="font-style:italic;font-size:75%">
<rect x="532" y="121" width="37" height="20" style="fill-opacity:0.3;fill:green"/>
<text x="574" y="136" style="text-anchor:start">-12.59%</text>
</g>
<text x="20" y="141" style="text-anchor:start">BenchmarkDecodeNRGBAGradient</text>
<g style="font-style:italic;font-size:75%">
<rect x="532" y="147" width="0" height="20" style="fill-opacity:0.3;fill:green"/>
<text x="537" y="162" style="text-anchor:start">-0.10%</text>
</g>
<text x="20" y="167" style="text-anchor:start">BenchmarkDecodeNRGBAOpaque</text>
<g style="font-style:italic;font-size:75%">
<rect x="510" y="173" width="22" height="20" style="fill-opacity:0.3;fill:red"/>
<text x="505" y="188" style="text-anchor:end">+7.49%</text>
</g>
<text x="20" y="193" style="text-anchor:start">BenchmarkDecodePaletted</text>
<g style="font-style:italic;font-size:75%">
<rect x="532" y="199" width="11" height="20" style="fill-opacity:0.3;fill:green"/>
<text x="548" y="214" style="text-anchor:start">-3.84%</text>
</g>
<text x="20" y="219" style="text-anchor:start">BenchmarkDecodeRGB</text>
<g style="font-style:italic;font-size:75%">
<rect x="530" y="225" width="2" height="20" style="fill-opacity:0.3;fill:red"/>
<text x="525" y="240" style="text-anchor:end">+0.71%</text>
</g>
<text x="20" y="245" style="text-anchor:start">BenchmarkEncodeGray</text>
<g style="font-style:italic;font-size:75%">
<rect x="532" y="251" width="0" height="20" style="fill-opacity:0.3;fill:red"/>
<text x="527" y="266" style="text-anchor:end">+0.05%</text>
</g>
<text x="20" y="271" style="text-anchor:start">BenchmarkEncodeNRGBOpaque</text>
<g style="font-style:italic;font-size:75%">
<rect x="532" y="277" width="0" height="20" style="fill-opacity:0.3;fill:red"/>
<text x="527" y="292" style="text-anchor:end">+0.25%</text>
</g>
<text x="20" y="297" style="text-anchor:start">BenchmarkEncodeNRGBA</text>
<g style="font-style:italic;font-size:75%">
<rect x="530" y="303" width="2" height="20" style="fill-opacity:0.3;fill:red"/>
<text x="525" y="318" style="text-anchor:end">+0.78%</text>
</g>
<text x="20" y="323" style="text-anchor:start">BenchmarkEncodePaletted</text>
<g style="font-style:italic;font-size:75%">
<rect x="532" y="329" width="0" height="20" style="fill-opacity:0.3;fill:red"/>
<text x="527" y="344" style="text-anchor:end">+0.16%</text>
</g>
<text x="20" y="349" style="text-anchor:start">BenchmarkEncodeRGBOpaque</text>
<g style="font-style:italic;font-size:75%">
<rect x="397" y="355" width="135" height="20" style="fill-opacity:0.3;fill:red"/>
<text x="392" y="370" style="text-anchor:end">+45.26%</text>
</g>
<text x="20" y="375" style="text-anchor:start">BenchmarkEncodeRGBA</text>
<g style="font-style:italic;font-size:75%">
<rect x="532" y="433" width="30" height="20" style="fill-opacity:0.3;fill:green"/>
<text x="567" y="448" style="text-anchor:start">1.02x</text>
</g>
<text x="20" y="453" style="text-anchor:start">BenchmarkDecodeGray</text>
<g style="font-style:italic;font-size:75%">
<rect x="532" y="459" width="34" height="20" style="fill-opacity:0.3;fill:green"/>
<text x="571" y="474" style="text-anchor:start">1.14x</text>
</g>
<text x="20" y="479" style="text-anchor:start">BenchmarkDecodeNRGBAGradient</text>
<g style="font-style:italic;font-size:75%">
<rect x="532" y="485" width="30" height="20" style="fill-opacity:0.3;fill:green"/>
<text x="567" y="500" style="text-anchor:start">1.00x</text>
</g>
<text x="20" y="505" style="text-anchor:start">BenchmarkDecodeNRGBAOpaque</text>
<g style="font-style:italic;font-size:75%">
<rect x="505" y="511" width="27" height="20" style="fill-opacity:0.3;fill:red"/>
<text x="500" y="526" style="text-anchor:end">0.93x</text>
</g>
<text x="20" y="531" style="text-anchor:start">BenchmarkDecodePaletted</text>
<g style="font-style:italic;font-size:75%">
<rect x="532" y="537" width="31" height="20" style="fill-opacity:0.3;fill:green"/>
<text x="568" y="552" style="text-anchor:start">1.04x</text>
</g>
<text x="20" y="557" style="text-anchor:start">BenchmarkDecodeRGB</text>
<g style="font-style:italic;font-size:75%">
<rect x="503" y="563" width="29" height="20" style="fill-opacity:0.3;fill:red"/>
<text x="498" y="578" style="text-anchor:end">0.99x</text>
</g>
<text x="20" y="583" style="text-anchor:start">BenchmarkEncodeGray</text>
<g style="font-style:italic;font-size:75%">
<rect x="532" y="589" width="30" height="20" style="fill-opacity:0.3;fill:green"/>
<text x="567" y="604" style="text-anchor:start">1.00x</text>
</g>
<text x="20" y="609" style="text-anchor:start">BenchmarkEncodeNRGBOpaque</text>
<g style="font-style:italic;font-size:75%">
<rect x="532" y="615" width="30" height="20" style="fill-opacity:0.3;fill:green"/>
<text x="567" y="630" style="text-anchor:start">1.00x</text>
</g>
<text x="20" y="635" style="text-anchor:start">BenchmarkEncodeNRGBA</text>
<g style="font-style:italic;font-size:75%">
<rect x="503" y="641" width="29" height="20" style="fill-opacity:0.3;fill:red"/>
<text x="498" y="656" style="text-anchor:end">0.99x</text>
</g>
<text x="20" y="661" style="text-anchor:start">BenchmarkEncodePaletted</text>
<g style="font-style:italic;font-size:75%">
<rect x="532" y="667" width="30" height="20" style="fill-opacity:0.3;fill:green"/>
<text x="567" y="682" style="text-anchor:start">1.00x</text>
</g>
<text x="20" y="687" style="text-anchor:start">BenchmarkEncodeRGBOpaque</text>
<g style="font-style:italic;font-size:75%">
<rect x="512" y="693" width="20" height="20" style="fill-opacity:0.3;fill:red"/>
<text x="507" y="708" style="text-anchor:end">0.69x</text>
</g>
<text x="20" y="713" style="text-anchor:start">BenchmarkEncodeRGBA</text>
</g>
</svg>
